<?xml version="1.0" encoding="UTF-8"?> <svg xmlns="http://www.w3.org/2000/svg" width="260" height="260" viewBox="0 0 260 260"><style>.a{fill:#F99C1F;}.b{fill:#FFF;}</style><path d="M130 0c71.8 0 130 58.2 130 130 0 71.8-58.2 130-130 130C58.2 260 0 201.8 0 130 0 58.2 58.2 0 130 0z" fill="#FCB342"></path><path d="M253 172l-47.4-84.4C182.2 45.8 129.3 30.9 87.5 54.4c-41.8 23.5-56.6 76.3-33.2 118.1l47.4 84.4c9.1 2 18.5 3.1 28.2 3.1C187.1 260 235.6 223.2 253 172z" class="a"></path><path d="M130 43.3c47.9 0 86.7 38.8 86.7 86.7s-38.8 86.7-86.7 86.7c-47.9 0-86.7-38.8-86.7-86.7S82.1 43.3 130 43.3z" class="b"></path><path d="M185 155.4H75v5.9c0 3.3 2.6 5.9 5.9 5.9h98.2c3.3 0 5.9-2.6 5.9-5.9V155.4zM177.1 163.3h-3.9v-3.9h3.9V163.3z" class="a"></path><path d="M106.4 188.8c0 1.1 0.9 2 2 2h43.2c1.1 0 2-0.9 2-2s-0.9-2-2-2h-43.2C107.3 186.8 106.4 187.7 106.4 188.8z" class="a"></path><path d="M118 171.1l-1.5 11.8h27l-1.5-11.8H118z" class="a"></path><path d="M185 86.6c0-3.3-2.6-5.9-5.9-5.9H80.9c-3.3 0-5.9 2.6-5.9 5.9v5.9h110V86.6zM86.8 88.6H82.8v-3.9h3.9V88.6zM94.6 88.6h-3.9v-3.9h3.9V88.6zM102.5 88.6h-3.9v-3.9h3.9V88.6z" class="a"></path><path d="M161.6 151.5h23.3V96.5H75v55h23.4" class="a"></path><path d="M111.4 128.7l4.5 1.4c-0.7 2.5-1.8 4.4-3.5 5.6 -1.6 1.2-3.7 1.8-6.1 1.8 -3.1 0-5.6-1-7.6-3.1s-3-5-3-8.6c0-3.8 1-6.8 3-8.9 2-2.1 4.6-3.2 7.8-3.2 2.8 0 5.1 0.8 6.9 2.5 1 1 1.8 2.4 2.4 4.3l-4.6 1.1c-0.3-1.2-0.8-2.1-1.7-2.8 -0.9-0.7-1.9-1-3.2-1 -1.7 0-3.1 0.6-4.2 1.8 -1.1 1.2-1.6 3.2-1.6 6 0 2.9 0.5 5 1.6 6.2 1 1.2 2.4 1.9 4.1 1.9 1.2 0 2.3-0.4 3.2-1.2S111 130.4 111.4 128.7z" class="b"></path><path d="M119.9 137.2v-23.1h7l4.2 15.7 4.1-15.7h7v23.1h-4.3v-18.2l-4.6 18.2h-4.5l-4.6-18.2v18.2H119.9z" class="b"></path><path d="M145.6 129.6l4.5-0.4c0.3 1.5 0.8 2.6 1.7 3.4 0.8 0.7 2 1.1 3.4 1.1 1.5 0 2.6-0.3 3.4-1s1.1-1.4 1.1-2.2c0-0.5-0.2-1-0.5-1.4 -0.3-0.4-0.9-0.7-1.7-1 -0.5-0.2-1.8-0.5-3.7-1 -2.5-0.6-4.3-1.4-5.3-2.3 -1.4-1.3-2.1-2.8-2.1-4.6 0-1.2 0.3-2.3 1-3.3 0.7-1 1.6-1.8 2.9-2.3s2.8-0.8 4.5-0.8c2.9 0 5.1 0.6 6.5 1.9 1.5 1.3 2.2 3 2.3 5.1l-4.7 0.2c-0.2-1.2-0.6-2-1.3-2.6 -0.7-0.5-1.6-0.8-3-0.8 -1.4 0-2.4 0.3-3.2 0.8 -0.5 0.4-0.7 0.8-0.7 1.4 0 0.5 0.2 1 0.7 1.4 0.6 0.5 2 1 4.3 1.5 2.3 0.5 3.9 1.1 5 1.7 1.1 0.6 1.9 1.4 2.6 2.3s0.9 2.2 0.9 3.7c0 1.3-0.4 2.6-1.1 3.7 -0.7 1.2-1.8 2-3.1 2.6 -1.3 0.6-3 0.8-5 0.8 -2.9 0-5.2-0.7-6.7-2S145.9 132.2 145.6 129.6z" class="b"></path></svg> 